<svg width="56" height="56" viewBox="0 0 56 56" fill="none" xmlns="http://www.w3.org/2000/svg">
<rect width="56" height="56" rx="28" fill="#F2F4F7"/>
<g opacity="0.08">
<rect x="0.375" y="0.375" width="55.25" height="55.25" rx="27.625" stroke="#101828" stroke-width="0.75"/>
</g>
<path d="M38.6667 40C38.6667 38.1392 38.6667 37.2089 38.437 36.4518C37.92 34.7473 36.5861 33.4134 34.8815 32.8963C34.1245 32.6667 33.1941 32.6667 31.3333 32.6667H24.6667C22.8059 32.6667 21.8755 32.6667 21.1185 32.8963C19.414 33.4134 18.0801 34.7473 17.563 36.4518C17.3333 37.2089 17.3333 38.1392 17.3333 40M34 22C34 25.3137 31.3137 28 28 28C24.6863 28 22 25.3137 22 22C22 18.6863 24.6863 16 28 16C31.3137 16 34 18.6863 34 22Z" stroke="#475467" stroke-width="2.66667" stroke-linecap="round" stroke-linejoin="round"/>
</svg>
